<svg xmlns="http://www.w3.org/2000/svg" viewBox="-15 -25 45 45" width="500" height="500">
  <defs>
    <style>
      .breathe-anim {
        transform-origin: 7.5px 13px;
        animation: breathe 3.2s infinite ease-in-out;
      }

      .eyes-blink {
        transform-origin: 7.5px 8.5px;
        animation: eye-blink 4s infinite ease-in-out;
      }

      #eyes-js, #body-js, #shadow-js {
        transition: transform 0.2s ease-out;
      }
      #shadow-js {
        transform-origin: 7.5px 15px;
      }

      @keyframes breathe {
        0%, 100% { transform: scale(1, 1) translate(0, 0); }
        50% { transform: scale(1.02, 0.98) translate(0, 0.5px); }
      }

      @keyframes eye-blink {
        0%, 10%, 100% { transform: scaleY(1); }
        5% { transform: scaleY(0.1); }
      }
    </style>
  </defs>

  <!-- Ground Shadow (JS-controlled horizontal shift) -->
  <g id="shadow-js">
    <rect x="3" y="15" width="9" height="1" fill="#000000" opacity="0.5"/>
  </g>

  <!-- Static Legs -->
  <g id="legs" fill="#4DA8A0">
    <rect x="3" y="11" width="1" height="4"/>
    <rect x="5" y="11" width="1" height="4"/>
    <rect x="9" y="11" width="1" height="4"/>
    <rect x="11" y="11" width="1" height="4"/>
  </g>

  <!-- Upper Body (JS body-shift + CSS breathe) -->
  <g id="body-js">
    <g class="breathe-anim">
      <!-- Horns -->
      <g fill="#3D8A83">
        <rect x="4" y="2" width="1" height="2"/>
        <rect x="3" y="3" width="1" height="1"/>
        <rect x="10" y="2" width="1" height="2"/>
        <rect x="11" y="3" width="1" height="1"/>
      </g>
      <!-- Head -->
      <rect x="3" y="4" width="9" height="2" fill="#4DA8A0"/>
      <!-- Fur tufts -->
      <g fill="#6EC4BC">
        <rect x="2" y="5" width="1" height="1"/>
        <rect x="12" y="5" width="1" height="1"/>
        <rect x="5" y="4" width="1" height="1"/>
        <rect x="9" y="4" width="1" height="1"/>
      </g>
      <!-- Torso -->
      <rect id="torso" x="2" y="6" width="11" height="7" fill="#4DA8A0"/>
      <!-- Left Arm -->
      <rect x="0" y="9" width="2" height="2" fill="#4DA8A0"/>
      <!-- Right Arm -->
      <rect x="13" y="9" width="2" height="2" fill="#4DA8A0"/>
      <!-- Single Cyclops Eye: JS translate wrapper + CSS blink -->
      <g id="eyes-js">
        <g class="eyes-blink">
          <rect x="5" y="7" width="5" height="3" fill="#FFFFFF" rx="0.5"/>
          <rect x="6" y="7.5" width="3" height="2" fill="#78C8A0" rx="0.3"/>
          <rect x="7" y="8" width="1" height="1" fill="#1A1A1A"/>
        </g>
      </g>
      <!-- Mouth with teeth -->
      <rect x="4" y="11" width="7" height="1.5" fill="#2D6B64" rx="0.3"/>
      <g fill="#FFFFFF">
        <rect x="5" y="11" width="1" height="0.7"/>
        <rect x="7" y="11" width="1" height="0.8"/>
        <rect x="9" y="11" width="1" height="0.7"/>
      </g>
    </g>
  </g>
</svg>
