<svg xmlns="http://www.w3.org/2000/svg" viewBox="-15 -25 45 45" width="500" height="500" shape-rendering="crispEdges">
  <defs>
    <style>
      .somersault { transform-origin: 7.5px 9px; animation: somersault 2.6s 1 cubic-bezier(0.3, 0.6, 0.3, 1); }
      .body-spin  { transform-origin: 7.5px 9px; animation: body-spin 2.6s 1 cubic-bezier(0.3, 0.6, 0.3, 1); }
      .flower-fly { transform-origin: 7.75px 5px; animation: flower-fly 2.6s 1 ease-in-out; }
      .sparkle { animation: sparkle 2.6s 1 ease-out; opacity: 0; }
      .sparkle-2 { animation: sparkle 2.6s 0.3s 1 ease-out; opacity: 0; }
      .sparkle-3 { animation: sparkle 2.6s 0.6s 1 ease-out; opacity: 0; }
      .sparkle-4 { animation: sparkle 2.6s 0.9s 1 ease-out; opacity: 0; }
      .happy-eyes { animation: eye-happy 2.6s 1 ease-out; }
      .shadow-pulse { animation: shadow-pulse 2.6s 1 ease-out; transform-origin: 7.5px 15.25px; }

      @keyframes somersault {
        0%   { transform: translateY(0) scale(1); }
        20%  { transform: translateY(-8px) scale(1.05); }
        50%  { transform: translateY(-11px) scale(0.95); }
        80%  { transform: translateY(-6px) scale(1.02); }
        100% { transform: translateY(0) scale(1); }
      }
      @keyframes body-spin {
        0%   { transform: rotate(0deg); }
        50%  { transform: rotate(360deg); }
        100% { transform: rotate(720deg); }
      }
      @keyframes flower-fly {
        0%, 100% { transform: rotate(0deg); }
        25%      { transform: rotate(-180deg); }
        75%      { transform: rotate(180deg); }
      }
      @keyframes sparkle {
        0%, 90%, 100% { opacity: 0; transform: scale(0.4); }
        20%, 60%      { opacity: 1; transform: scale(1.2); }
      }
      @keyframes eye-happy {
        0%, 100% { transform: scaleY(1); }
        50%      { transform: scaleY(0.4); }
      }
      @keyframes shadow-pulse {
        0%, 100% { transform: scale(1, 1); opacity: 0.35; }
        50%      { transform: scale(0.5, 0.4); opacity: 0.15; }
      }
    </style>
  </defs>

  <g class="shadow-pulse">
    <rect x="3" y="14.5" width="9" height="0.5" fill="#000000"/>
  </g>

  <g class="somersault">
    <g class="body-spin">
      <g class="flower-fly">
        <g fill="#FFFFFF">
          <rect x="7" y="0" width="0.5" height="0.5"/><rect x="7.5" y="0" width="0.5" height="0.5"/>
          <rect x="6.5" y="0.5" width="0.5" height="0.5"/><rect x="8.5" y="0.5" width="0.5" height="0.5"/>
          <rect x="6" y="0.5" width="0.5" height="0.5"/><rect x="6" y="1" width="0.5" height="0.5"/><rect x="6" y="1.5" width="0.5" height="0.5"/>
          <rect x="9" y="0.5" width="0.5" height="0.5"/><rect x="9" y="1" width="0.5" height="0.5"/><rect x="9" y="1.5" width="0.5" height="0.5"/>
          <rect x="6.5" y="1.5" width="0.5" height="0.5"/><rect x="8.5" y="1.5" width="0.5" height="0.5"/>
          <rect x="7" y="2" width="0.5" height="0.5"/><rect x="7.5" y="2" width="0.5" height="0.5"/>
        </g>
        <g fill="#FFE870">
          <rect x="7" y="0.5" width="0.5" height="0.5"/><rect x="7.5" y="0.5" width="0.5" height="0.5"/><rect x="8" y="0.5" width="0.5" height="0.5"/>
          <rect x="6.5" y="1" width="0.5" height="0.5"/><rect x="8.5" y="1" width="0.5" height="0.5"/>
          <rect x="7" y="1.5" width="0.5" height="0.5"/><rect x="7.5" y="1.5" width="0.5" height="0.5"/><rect x="8" y="1.5" width="0.5" height="0.5"/>
        </g>
        <g fill="#FFC93C"><rect x="7" y="1" width="0.5" height="0.5"/><rect x="8" y="1" width="0.5" height="0.5"/></g>
        <rect x="7.5" y="1" width="0.5" height="0.5" fill="#E67E22"/>
        <rect x="7.5" y="1" width="0.25" height="0.25" fill="#FFF176"/>
        <g fill="#7BA829">
          <rect x="7.5" y="2.5" width="0.5" height="0.5"/><rect x="7.5" y="3" width="0.5" height="0.5"/>
          <rect x="7.5" y="3.5" width="0.5" height="0.5"/><rect x="7.5" y="4" width="0.5" height="0.5"/>
          <rect x="7.5" y="4.5" width="0.5" height="0.5"/>
        </g>
      </g>

      <g fill="#B8D930">
        <rect x="6.5" y="5" width="2" height="0.5"/>
        <rect x="6" y="5.5" width="3" height="0.5"/>
        <rect x="5.5" y="6" width="4" height="0.5"/>
        <rect x="5" y="6.5" width="5" height="0.5"/>
        <rect x="4.5" y="7" width="6" height="0.5"/>
        <rect x="4" y="7.5" width="7" height="0.5"/>
        <rect x="3.5" y="8" width="8" height="2.5"/>
        <rect x="4" y="10.5" width="7" height="0.5"/>
        <rect x="4.5" y="11" width="6" height="0.5"/>
        <rect x="5" y="11.5" width="5" height="0.5"/>
        <rect x="5.5" y="12" width="4" height="1.5"/>
      </g>
      <rect x="5.5" y="13" width="4" height="0.5" fill="#8BA82A" opacity="0.45"/>

      <rect x="5" y="12" width="0.5" height="1.5" fill="#B8D930"/>
      <rect x="9.5" y="12" width="0.5" height="1.5" fill="#B8D930"/>

      <g fill="#7BA829">
        <rect x="6" y="13.5" width="0.5" height="1"/>
        <rect x="6.5" y="13.5" width="0.5" height="1"/>
        <rect x="8" y="13.5" width="0.5" height="1"/>
        <rect x="8.5" y="13.5" width="0.5" height="1"/>
      </g>

      <!-- happy curved eyes (^ ^) -->
      <g class="happy-eyes" fill="#000000">
        <rect x="4"   y="8.5" width="0.5" height="0.5"/>
        <rect x="4.5" y="8"   width="0.5" height="0.5"/>
        <rect x="5"   y="8"   width="0.5" height="0.5"/>
        <rect x="5.5" y="8.5" width="0.5" height="0.5"/>

        <rect x="9"    y="8.5" width="0.5" height="0.5"/>
        <rect x="9.5"  y="8"   width="0.5" height="0.5"/>
        <rect x="10"   y="8"   width="0.5" height="0.5"/>
        <rect x="10.5" y="8.5" width="0.5" height="0.5"/>
      </g>
    </g>
  </g>

  <!-- sparkles around -->
  <g fill="#FFE870">
    <g class="sparkle">
      <rect x="-1"  y="2" width="0.5" height="0.5"/><rect x="-1.5" y="2.5" width="0.5" height="0.5"/>
      <rect x="-0.5" y="2.5" width="0.5" height="0.5"/><rect x="-1" y="3" width="0.5" height="0.5"/>
    </g>
    <g class="sparkle-2">
      <rect x="14" y="3" width="0.5" height="0.5"/><rect x="14.5" y="3.5" width="0.5" height="0.5"/>
      <rect x="13.5" y="3.5" width="0.5" height="0.5"/><rect x="14" y="4" width="0.5" height="0.5"/>
    </g>
    <g class="sparkle-3">
      <rect x="2"  y="-3" width="0.5" height="0.5"/><rect x="2.5" y="-2.5" width="0.5" height="0.5"/>
      <rect x="1.5" y="-2.5" width="0.5" height="0.5"/><rect x="2" y="-2" width="0.5" height="0.5"/>
    </g>
    <g class="sparkle-4">
      <rect x="12" y="-4" width="0.5" height="0.5"/><rect x="12.5" y="-3.5" width="0.5" height="0.5"/>
      <rect x="11.5" y="-3.5" width="0.5" height="0.5"/><rect x="12" y="-3" width="0.5" height="0.5"/>
    </g>
  </g>
</svg>
