<svg xmlns="http://www.w3.org/2000/svg" viewBox="-15 -25 45 45" width="500" height="500" shape-rendering="crispEdges">
  <defs>
    <style>
      .breathe-anim { transform-origin: 7.5px 13.5px; animation: breathe 3.2s infinite ease-in-out; }
      .eyes-blink   { transform-origin: 7.5px 8.75px; animation: eye-blink 5s infinite ease-in-out; }
      .flower-sway  { transform-origin: 7.75px 5px; animation: flower-sway 6s infinite ease-in-out; }

      /* Smooth eye/body/shadow tracking */
      #eyes-js, #body-js, #shadow-js { transition: transform 0.2s ease-out; }
      #shadow-js { transform-origin: 7.5px 15px; }

      @keyframes breathe {
        0%, 100% { transform: scale(1, 1); }
        50%      { transform: scale(1.03, 0.97); }
      }
      @keyframes eye-blink {
        0%, 6%, 100% { transform: scaleY(1); }
        3%           { transform: scaleY(0.1); }
      }
      @keyframes flower-sway {
        0%, 100% { transform: rotate(-4deg); }
        50%      { transform: rotate(4deg); }
      }
    </style>
  </defs>

  <!-- Ground shadow — JS translate + scale for tracking parallax -->
  <g id="shadow-js">
    <rect x="3" y="15" width="9" height="0.5" fill="#000000" opacity="0.5"/>
  </g>

  <!-- Static legs (outside body-js so they don't shift with tracking) -->
  <g fill="#7BA829">
    <rect x="6"   y="13.5" width="0.5" height="1"/>
    <rect x="6.5" y="13.5" width="0.5" height="1"/>
    <rect x="8"   y="13.5" width="0.5" height="1"/>
    <rect x="8.5" y="13.5" width="0.5" height="1"/>
  </g>

  <!-- Upper body — JS translate for subtle tracking shift -->
  <g id="body-js">
    <g class="breathe-anim">

      <!-- Daisy flower + stem (sways slightly) -->
      <g class="flower-sway">
        <g fill="#FFFFFF">
          <rect x="7" y="0" width="0.5" height="0.5"/><rect x="7.5" y="0" width="0.5" height="0.5"/>
          <rect x="6.5" y="0.5" width="0.5" height="0.5"/><rect x="8.5" y="0.5" width="0.5" height="0.5"/>
          <rect x="6" y="0.5" width="0.5" height="0.5"/><rect x="6" y="1" width="0.5" height="0.5"/><rect x="6" y="1.5" width="0.5" height="0.5"/>
          <rect x="9" y="0.5" width="0.5" height="0.5"/><rect x="9" y="1" width="0.5" height="0.5"/><rect x="9" y="1.5" width="0.5" height="0.5"/>
          <rect x="6.5" y="1.5" width="0.5" height="0.5"/><rect x="8.5" y="1.5" width="0.5" height="0.5"/>
          <rect x="7" y="2" width="0.5" height="0.5"/><rect x="7.5" y="2" width="0.5" height="0.5"/>
        </g>
        <g fill="#FFE870">
          <rect x="7" y="0.5" width="0.5" height="0.5"/><rect x="7.5" y="0.5" width="0.5" height="0.5"/><rect x="8" y="0.5" width="0.5" height="0.5"/>
          <rect x="6.5" y="1" width="0.5" height="0.5"/><rect x="8.5" y="1" width="0.5" height="0.5"/>
          <rect x="7" y="1.5" width="0.5" height="0.5"/><rect x="7.5" y="1.5" width="0.5" height="0.5"/><rect x="8" y="1.5" width="0.5" height="0.5"/>
        </g>
        <g fill="#FFC93C"><rect x="7" y="1" width="0.5" height="0.5"/><rect x="8" y="1" width="0.5" height="0.5"/></g>
        <rect x="7.5" y="1" width="0.5" height="0.5" fill="#E67E22"/>
        <rect x="7.5" y="1" width="0.25" height="0.25" fill="#FFF176"/>
        <g fill="#7BA829">
          <rect x="7.5" y="2.5" width="0.5" height="0.5"/><rect x="7.5" y="3"   width="0.5" height="0.5"/>
          <rect x="7.5" y="3.5" width="0.5" height="0.5"/><rect x="7.5" y="4"   width="0.5" height="0.5"/>
          <rect x="7.5" y="4.5" width="0.5" height="0.5"/>
        </g>
      </g>

      <!-- Body (teardrop shape) -->
      <g fill="#B8D930">
        <rect x="6.5" y="5"  width="2"   height="0.5"/>
        <rect x="6"   y="5.5" width="3"   height="0.5"/>
        <rect x="5.5" y="6"  width="4"   height="0.5"/>
        <rect x="5"   y="6.5" width="5"   height="0.5"/>
        <rect x="4.5" y="7"  width="6"   height="0.5"/>
        <rect x="4"   y="7.5" width="7"   height="0.5"/>
        <rect x="3.5" y="8"  width="8"   height="2.5"/>
        <rect x="4"   y="10.5" width="7"   height="0.5"/>
        <rect x="4.5" y="11" width="6"   height="0.5"/>
        <rect x="5"   y="11.5" width="5"   height="0.5"/>
        <rect x="5.5" y="12" width="4"   height="1.5"/>
      </g>
      <rect x="5.5" y="13" width="4" height="0.5" fill="#8BA82A" opacity="0.45"/>

      <!-- Arms -->
      <rect x="5"   y="12" width="0.5" height="1.5" fill="#B8D930"/>
      <rect x="9.5" y="12" width="0.5" height="1.5" fill="#B8D930"/>

      <!-- Eyes: JS translate wrapper + CSS blink -->
      <g id="eyes-js">
        <g class="eyes-blink">
          <g fill="#000000">
            <rect id="left-eye"  x="4" y="7.5" width="2" height="2.5"/>
            <rect id="right-eye" x="9" y="7.5" width="2" height="2.5"/>
          </g>
          <g fill="#FFFFFF">
            <rect x="4"    y="7.5" width="1"   height="0.5"/>
            <rect x="4.5"  y="8"   width="0.5" height="0.5"/>
            <rect x="5"    y="9"   width="0.5" height="0.5"/>
            <rect x="10"   y="7.5" width="1"   height="0.5"/>
            <rect x="10.5" y="8"   width="0.5" height="0.5"/>
            <rect x="9.5"  y="9"   width="0.5" height="0.5"/>
          </g>
        </g>
      </g>
    </g>
  </g>
</svg>
