<svg xmlns="http://www.w3.org/2000/svg" viewBox="-15 -25 45 45" width="500" height="500" shape-rendering="crispEdges">
  <defs>
    <style>
      .breathe-slow { transform-origin: 7.5px 13.5px; animation: breathe-slow 5s infinite ease-in-out; }
      .flower-droop { transform-origin: 7.75px 5px; animation: flower-droop 5s infinite ease-in-out; }
      .eyes-closed { transform-origin: 7.5px 8.75px; transform: scaleY(0.1); }
      .shadow-slow { transform-origin: 7.5px 15px; animation: shadow-slow 5s infinite ease-in-out; }
      .zzz-1 { animation: zzz-float 3s infinite ease-in-out; }
      .zzz-2 { animation: zzz-float 3s infinite ease-in-out 1s; }
      .zzz-3 { animation: zzz-float 3s infinite ease-in-out 2s; }

      @keyframes breathe-slow {
        0%, 100% { transform: scale(1, 1); }
        50% { transform: scale(1.04, 0.96); }
      }
      @keyframes shadow-slow {
        0%, 100% { transform: scaleX(1); opacity: 0.5; }
        50% { transform: scaleX(1.05); opacity: 0.55; }
      }
      @keyframes flower-droop {
        0%, 100% { transform: rotate(25deg) translate(0, 0.5px); }
        50% { transform: rotate(28deg) translate(0, 1px); }
      }
      @keyframes zzz-float {
        0% { transform: translate(0, 0); opacity: 0; }
        30% { opacity: 1; }
        100% { transform: translate(2px, -6px); opacity: 0; }
      }
    </style>
  </defs>

  <rect class="shadow-slow" x="3" y="15" width="9" height="0.5" fill="#000000" opacity="0.5"/>

  <g class="breathe-slow">
    <!-- Daisy + stem (drooping) -->
    <g class="flower-droop">
      <g fill="#FFFFFF">
        <rect x="7" y="0" width="0.5" height="0.5"/><rect x="7.5" y="0" width="0.5" height="0.5"/>
        <rect x="6.5" y="0.5" width="0.5" height="0.5"/><rect x="8.5" y="0.5" width="0.5" height="0.5"/>
        <rect x="6" y="0.5" width="0.5" height="0.5"/><rect x="6" y="1" width="0.5" height="0.5"/><rect x="6" y="1.5" width="0.5" height="0.5"/>
        <rect x="9" y="0.5" width="0.5" height="0.5"/><rect x="9" y="1" width="0.5" height="0.5"/><rect x="9" y="1.5" width="0.5" height="0.5"/>
        <rect x="6.5" y="1.5" width="0.5" height="0.5"/><rect x="8.5" y="1.5" width="0.5" height="0.5"/>
        <rect x="7" y="2" width="0.5" height="0.5"/><rect x="7.5" y="2" width="0.5" height="0.5"/>
      </g>
      <g fill="#FFE870">
        <rect x="7" y="0.5" width="0.5" height="0.5"/><rect x="7.5" y="0.5" width="0.5" height="0.5"/><rect x="8" y="0.5" width="0.5" height="0.5"/>
        <rect x="6.5" y="1" width="0.5" height="0.5"/><rect x="8.5" y="1" width="0.5" height="0.5"/>
        <rect x="7" y="1.5" width="0.5" height="0.5"/><rect x="7.5" y="1.5" width="0.5" height="0.5"/><rect x="8" y="1.5" width="0.5" height="0.5"/>
      </g>
      <g fill="#FFC93C"><rect x="7" y="1" width="0.5" height="0.5"/><rect x="8" y="1" width="0.5" height="0.5"/></g>
      <rect x="7.5" y="1" width="0.5" height="0.5" fill="#E67E22"/>
      <rect x="7.5" y="1" width="0.25" height="0.25" fill="#FFF176"/>
      <g fill="#7BA829">
        <rect x="7.5" y="2.5" width="0.5" height="0.5"/><rect x="7.5" y="3" width="0.5" height="0.5"/>
        <rect x="7.5" y="3.5" width="0.5" height="0.5"/><rect x="7.5" y="4" width="0.5" height="0.5"/>
        <rect x="7.5" y="4.5" width="0.5" height="0.5"/>
      </g>
    </g>

    <!-- Body -->
    <g fill="#B8D930">
      <rect x="6.5" y="5" width="2" height="0.5"/>
      <rect x="6" y="5.5" width="3" height="0.5"/>
      <rect x="5.5" y="6" width="4" height="0.5"/>
      <rect x="5" y="6.5" width="5" height="0.5"/>
      <rect x="4.5" y="7" width="6" height="0.5"/>
      <rect x="4" y="7.5" width="7" height="0.5"/>
      <rect x="3.5" y="8" width="8" height="2.5"/>
      <rect x="4" y="10.5" width="7" height="0.5"/>
      <rect x="4.5" y="11" width="6" height="0.5"/>
      <rect x="5" y="11.5" width="5" height="0.5"/>
      <rect x="5.5" y="12" width="4" height="1.5"/>
    </g>
    <rect x="5.5" y="13" width="4" height="0.5" fill="#8BA82A" opacity="0.45"/>

    <rect x="5" y="12" width="0.5" height="1.5" fill="#B8D930"/>
    <rect x="9.5" y="12" width="0.5" height="1.5" fill="#B8D930"/>

    <g fill="#7BA829">
      <rect id="outer-left-leg" x="6" y="13.5" width="0.5" height="1"/>
      <rect id="inner-left-leg" x="6.5" y="13.5" width="0.5" height="1"/>
      <rect id="inner-right-leg" x="8" y="13.5" width="0.5" height="1"/>
      <rect id="outer-right-leg" x="8.5" y="13.5" width="0.5" height="1"/>
    </g>

    <!-- Closed eyes (arc lines) -->
    <g fill="#000000">
      <rect x="4" y="8.5" width="0.5" height="0.5"/>
      <rect x="4.5" y="8" width="1" height="0.5"/>
      <rect x="5.5" y="8.5" width="0.5" height="0.5"/>
      <rect x="9" y="8.5" width="0.5" height="0.5"/>
      <rect x="9.5" y="8" width="1" height="0.5"/>
      <rect x="10.5" y="8.5" width="0.5" height="0.5"/>
    </g>
  </g>

  <!-- Zzz particles -->
  <g fill="#FFFFFF" font-family="monospace" font-size="2" font-weight="bold">
    <text class="zzz-1" x="11" y="5">Z</text>
    <text class="zzz-2" x="12" y="3.5">z</text>
    <text class="zzz-3" x="13" y="2">z</text>
  </g>
</svg>
