<svg xmlns="http://www.w3.org/2000/svg" viewBox="-15 -25 45 45" width="500" height="500" shape-rendering="crispEdges">
  <defs>
    <style>
      .breathe-anim { transform-origin: 7.5px 13.5px; animation: breathe 3s infinite ease-in-out; }
      .eyes-blink   { transform-origin: 7.5px 8.75px; animation: eye-blink 4s infinite ease-in-out; }
      .arm-wave     { transform-box: fill-box; transform-origin: 100% 0%; animation: peek-wave 3s infinite ease-in-out; }
      .flower-dangle { transform-origin: 7.75px 5px; animation: flower-dangle 3s infinite ease-in-out; }

      #eyes-js, #body-js { transition: transform 0.2s ease-out; }

      @keyframes breathe {
        0%, 100% { transform: scale(1, 1); }
        50%      { transform: scale(1.04, 0.96); }
      }
      @keyframes eye-blink {
        0%, 10%, 100% { transform: scaleY(1); }
        5%            { transform: scaleY(0.1); }
      }
      /* 3 quick waves (0.9s) then pause */
      @keyframes peek-wave {
        0%        { transform: rotate(0deg); }
        5%        { transform: rotate(-40deg); }
        10%       { transform: rotate(15deg); }
        15%       { transform: rotate(-35deg); }
        20%       { transform: rotate(12deg); }
        25%       { transform: rotate(-30deg); }
        30%, 100% { transform: rotate(0deg); }
      }
      @keyframes flower-dangle {
        0%, 100% { transform: rotate(6deg); }
        50%      { transform: rotate(16deg); }
      }
    </style>
  </defs>

  <!-- Hanging tilt -->
  <g transform="rotate(-12, 7.5, 14)">

    <g fill="#7BA829">
      <rect x="6"   y="13.5" width="0.5" height="1"/>
      <rect x="6.5" y="13.5" width="0.5" height="1"/>
      <rect x="8"   y="13.5" width="0.5" height="1"/>
      <rect x="8.5" y="13.5" width="0.5" height="1"/>
    </g>

    <g id="body-js">
      <g class="breathe-anim">

        <g class="flower-dangle">
          <g fill="#FFFFFF">
            <rect x="7" y="0" width="0.5" height="0.5"/><rect x="7.5" y="0" width="0.5" height="0.5"/>
            <rect x="6.5" y="0.5" width="0.5" height="0.5"/><rect x="8.5" y="0.5" width="0.5" height="0.5"/>
            <rect x="6" y="0.5" width="0.5" height="0.5"/><rect x="6" y="1" width="0.5" height="0.5"/><rect x="6" y="1.5" width="0.5" height="0.5"/>
            <rect x="9" y="0.5" width="0.5" height="0.5"/><rect x="9" y="1" width="0.5" height="0.5"/><rect x="9" y="1.5" width="0.5" height="0.5"/>
            <rect x="6.5" y="1.5" width="0.5" height="0.5"/><rect x="8.5" y="1.5" width="0.5" height="0.5"/>
            <rect x="7" y="2" width="0.5" height="0.5"/><rect x="7.5" y="2" width="0.5" height="0.5"/>
          </g>
          <g fill="#FFE870">
            <rect x="7" y="0.5" width="0.5" height="0.5"/><rect x="7.5" y="0.5" width="0.5" height="0.5"/><rect x="8" y="0.5" width="0.5" height="0.5"/>
            <rect x="6.5" y="1" width="0.5" height="0.5"/><rect x="8.5" y="1" width="0.5" height="0.5"/>
            <rect x="7" y="1.5" width="0.5" height="0.5"/><rect x="7.5" y="1.5" width="0.5" height="0.5"/><rect x="8" y="1.5" width="0.5" height="0.5"/>
          </g>
          <g fill="#FFC93C"><rect x="7" y="1" width="0.5" height="0.5"/><rect x="8" y="1" width="0.5" height="0.5"/></g>
          <rect x="7.5" y="1" width="0.5" height="0.5" fill="#E67E22"/>
          <rect x="7.5" y="1" width="0.25" height="0.25" fill="#FFF176"/>
          <g fill="#7BA829">
            <rect x="7.5" y="2.5" width="0.5" height="0.5"/><rect x="7.5" y="3"   width="0.5" height="0.5"/>
            <rect x="7.5" y="3.5" width="0.5" height="0.5"/><rect x="7.5" y="4"   width="0.5" height="0.5"/>
            <rect x="7.5" y="4.5" width="0.5" height="0.5"/>
          </g>
        </g>

        <g fill="#B8D930">
          <rect x="6.5" y="5"  width="2"   height="0.5"/>
          <rect x="6"   y="5.5" width="3"   height="0.5"/>
          <rect x="5.5" y="6"  width="4"   height="0.5"/>
          <rect x="5"   y="6.5" width="5"   height="0.5"/>
          <rect x="4.5" y="7"  width="6"   height="0.5"/>
          <rect x="4"   y="7.5" width="7"   height="0.5"/>
          <rect x="3.5" y="8"  width="8"   height="2.5"/>
          <rect x="4"   y="10.5" width="7"   height="0.5"/>
          <rect x="4.5" y="11" width="6"   height="0.5"/>
          <rect x="5"   y="11.5" width="5"   height="0.5"/>
          <rect x="5.5" y="12" width="4"   height="1.5"/>
        </g>
        <rect x="5.5" y="13" width="4" height="0.5" fill="#8BA82A" opacity="0.45"/>

        <g class="arm-wave">
          <rect x="5" y="12" width="0.5" height="1.5" fill="#B8D930"/>
        </g>
        <rect x="9.5" y="12" width="0.5" height="1.5" fill="#B8D930"/>

        <g id="eyes-js">
          <g class="eyes-blink">
            <g fill="#000000">
              <rect id="left-eye"  x="4" y="7.5" width="2" height="2.5"/>
              <rect id="right-eye" x="9" y="7.5" width="2" height="2.5"/>
            </g>
            <g fill="#FFFFFF">
              <rect x="4"    y="7.5" width="1"   height="0.5"/>
              <rect x="4.5"  y="8"   width="0.5" height="0.5"/>
              <rect x="5"    y="9"   width="0.5" height="0.5"/>
              <rect x="10"   y="7.5" width="1"   height="0.5"/>
              <rect x="10.5" y="8"   width="0.5" height="0.5"/>
              <rect x="9.5"  y="9"   width="0.5" height="0.5"/>
            </g>
          </g>
        </g>
      </g>
    </g>
  </g>
</svg>
