<svg xmlns="http://www.w3.org/2000/svg" viewBox="-15 -25 45 45" width="500" height="500" shape-rendering="crispEdges">
  <defs>
    <style>
      .body-sway { transform-origin: 7.5px 13.5px; animation: body-sway 4s infinite ease-in-out; }
      .eyes-up { transform-origin: 7.5px 8.75px; animation: eyes-up 4s infinite ease-in-out; }
      .hand-chin { transform-origin: 9.75px 12px; animation: hand-chin 4s infinite ease-in-out; }
      .flower-tilt { transform-origin: 7.75px 5px; animation: flower-tilt 4s infinite ease-in-out; }
      .dot-1 { animation: dot-fade 1.5s infinite ease-in-out; }
      .dot-2 { animation: dot-fade 1.5s infinite ease-in-out 0.5s; }
      .dot-3 { animation: dot-fade 1.5s infinite ease-in-out 1s; }

      @keyframes body-sway {
        0%, 100% { transform: rotate(-2deg); }
        50% { transform: rotate(2deg); }
      }
      @keyframes eyes-up {
        0%, 100% { transform: translate(-0.3px, -0.3px); }
        50% { transform: translate(0.3px, -0.5px); }
      }
      @keyframes hand-chin {
        0%, 100% { transform: translate(-1px, -1.5px) rotate(-50deg); }
        50% { transform: translate(-1px, -1.7px) rotate(-55deg); }
      }
      @keyframes flower-tilt {
        0%, 100% { transform: rotate(-8deg); }
        50% { transform: rotate(-5deg); }
      }
      @keyframes dot-fade {
        0%, 100% { opacity: 0.2; transform: translate(0, 0); }
        50% { opacity: 1; transform: translate(0, -0.2px); }
      }
    </style>
  </defs>

  <rect x="3" y="15" width="9" height="0.5" fill="#000000" opacity="0.5"/>

  <g class="body-sway">
    <g class="flower-tilt">
      <g fill="#FFFFFF">
        <rect x="7" y="0" width="0.5" height="0.5"/><rect x="7.5" y="0" width="0.5" height="0.5"/>
        <rect x="6.5" y="0.5" width="0.5" height="0.5"/><rect x="8.5" y="0.5" width="0.5" height="0.5"/>
        <rect x="6" y="0.5" width="0.5" height="0.5"/><rect x="6" y="1" width="0.5" height="0.5"/><rect x="6" y="1.5" width="0.5" height="0.5"/>
        <rect x="9" y="0.5" width="0.5" height="0.5"/><rect x="9" y="1" width="0.5" height="0.5"/><rect x="9" y="1.5" width="0.5" height="0.5"/>
        <rect x="6.5" y="1.5" width="0.5" height="0.5"/><rect x="8.5" y="1.5" width="0.5" height="0.5"/>
        <rect x="7" y="2" width="0.5" height="0.5"/><rect x="7.5" y="2" width="0.5" height="0.5"/>
      </g>
      <g fill="#FFE870">
        <rect x="7" y="0.5" width="0.5" height="0.5"/><rect x="7.5" y="0.5" width="0.5" height="0.5"/><rect x="8" y="0.5" width="0.5" height="0.5"/>
        <rect x="6.5" y="1" width="0.5" height="0.5"/><rect x="8.5" y="1" width="0.5" height="0.5"/>
        <rect x="7" y="1.5" width="0.5" height="0.5"/><rect x="7.5" y="1.5" width="0.5" height="0.5"/><rect x="8" y="1.5" width="0.5" height="0.5"/>
      </g>
      <g fill="#FFC93C"><rect x="7" y="1" width="0.5" height="0.5"/><rect x="8" y="1" width="0.5" height="0.5"/></g>
      <rect x="7.5" y="1" width="0.5" height="0.5" fill="#E67E22"/>
      <rect x="7.5" y="1" width="0.25" height="0.25" fill="#FFF176"/>
      <g fill="#7BA829">
        <rect x="7.5" y="2.5" width="0.5" height="0.5"/><rect x="7.5" y="3" width="0.5" height="0.5"/>
        <rect x="7.5" y="3.5" width="0.5" height="0.5"/><rect x="7.5" y="4" width="0.5" height="0.5"/>
        <rect x="7.5" y="4.5" width="0.5" height="0.5"/>
      </g>
    </g>

    <g fill="#B8D930">
      <rect x="6.5" y="5" width="2" height="0.5"/>
      <rect x="6" y="5.5" width="3" height="0.5"/>
      <rect x="5.5" y="6" width="4" height="0.5"/>
      <rect x="5" y="6.5" width="5" height="0.5"/>
      <rect x="4.5" y="7" width="6" height="0.5"/>
      <rect x="4" y="7.5" width="7" height="0.5"/>
      <rect x="3.5" y="8" width="8" height="2.5"/>
      <rect x="4" y="10.5" width="7" height="0.5"/>
      <rect x="4.5" y="11" width="6" height="0.5"/>
      <rect x="5" y="11.5" width="5" height="0.5"/>
      <rect x="5.5" y="12" width="4" height="1.5"/>
    </g>
    <rect x="5.5" y="13" width="4" height="0.5" fill="#8BA82A" opacity="0.45"/>

    <!-- Left hand: normal position -->
    <rect x="5" y="12" width="0.5" height="1.5" fill="#B8D930"/>
    <!-- Right hand: moved up to chin (thinking pose) -->
    <g class="hand-chin">
      <rect x="9.5" y="12" width="0.5" height="1.5" fill="#B8D930"/>
    </g>

    <g fill="#7BA829">
      <rect id="outer-left-leg" x="6" y="13.5" width="0.5" height="1"/>
      <rect id="inner-left-leg" x="6.5" y="13.5" width="0.5" height="1"/>
      <rect id="inner-right-leg" x="8" y="13.5" width="0.5" height="1"/>
      <rect id="outer-right-leg" x="8.5" y="13.5" width="0.5" height="1"/>
    </g>

    <g class="eyes-up">
      <g fill="#000000">
        <rect id="left-eye" x="4" y="7.5" width="2" height="2.5"/>
        <rect id="right-eye" x="9" y="7.5" width="2" height="2.5"/>
      </g>
      <g fill="#FFFFFF">
        <rect x="4" y="7.5" width="1" height="0.5"/>
        <rect x="4.5" y="8" width="0.5" height="0.5"/>
        <rect x="10" y="7.5" width="1" height="0.5"/>
        <rect x="10.5" y="8" width="0.5" height="0.5"/>
      </g>
    </g>
  </g>

  <!-- Thought bubble -->
  <g fill="#FFFFFF" stroke="#333" stroke-width="0.1">
    <rect x="12" y="3" width="4" height="2.5" rx="0.5"/>
    <rect x="11.5" y="5.5" width="0.5" height="0.5"/>
    <rect x="11" y="6" width="0.3" height="0.3"/>
  </g>
  <g fill="#333">
    <rect class="dot-1" x="12.5" y="4" width="0.5" height="0.5"/>
    <rect class="dot-2" x="13.5" y="4" width="0.5" height="0.5"/>
    <rect class="dot-3" x="14.5" y="4" width="0.5" height="0.5"/>
  </g>
</svg>
