<svg xmlns="http://www.w3.org/2000/svg" viewBox="-15 -25 45 45" width="500" height="500" shape-rendering="crispEdges">
  <defs>
    <style>
      .body-bounce { transform-origin: 7.5px 13.5px; animation: body-bounce 0.6s infinite ease-in-out; }
      .hand-l { transform-origin: 5px 12px; animation: hand-l 0.4s infinite ease-in-out; }
      .hand-r { transform-origin: 10px 12px; animation: hand-r 0.4s infinite ease-in-out 0.2s; }
      .eyes-focus { transform: translate(0, 0.3px); }
      .key-1 { animation: key-press 0.4s infinite ease-in-out; }
      .key-2 { animation: key-press 0.4s infinite ease-in-out 0.1s; }
      .key-3 { animation: key-press 0.4s infinite ease-in-out 0.2s; }
      .key-4 { animation: key-press 0.4s infinite ease-in-out 0.3s; }
      .flower-bob { transform-origin: 7.75px 5px; animation: flower-bob 0.6s infinite ease-in-out; }

      @keyframes body-bounce {
        0%, 100% { transform: translate(0, 0); }
        50% { transform: translate(0, -0.2px); }
      }
      @keyframes hand-l {
        0%, 100% { transform: translate(0, 0); }
        50% { transform: translate(0, 0.5px) scaleY(0.85); }
      }
      @keyframes hand-r {
        0%, 100% { transform: translate(0, 0); }
        50% { transform: translate(0, 0.5px) scaleY(0.85); }
      }
      @keyframes key-press {
        0%, 40%, 100% { fill: #444; }
        50% { fill: #B8D930; }
      }
      @keyframes flower-bob {
        0%, 100% { transform: rotate(-2deg); }
        50% { transform: rotate(2deg); }
      }
    </style>
  </defs>

  <rect x="3" y="15" width="9" height="0.5" fill="#000000" opacity="0.5"/>

  <g class="body-bounce">
    <!-- Daisy + stem -->
    <g class="flower-bob">
      <g fill="#FFFFFF">
        <rect x="7" y="0" width="0.5" height="0.5"/><rect x="7.5" y="0" width="0.5" height="0.5"/>
        <rect x="6.5" y="0.5" width="0.5" height="0.5"/><rect x="8.5" y="0.5" width="0.5" height="0.5"/>
        <rect x="6" y="0.5" width="0.5" height="0.5"/><rect x="6" y="1" width="0.5" height="0.5"/><rect x="6" y="1.5" width="0.5" height="0.5"/>
        <rect x="9" y="0.5" width="0.5" height="0.5"/><rect x="9" y="1" width="0.5" height="0.5"/><rect x="9" y="1.5" width="0.5" height="0.5"/>
        <rect x="6.5" y="1.5" width="0.5" height="0.5"/><rect x="8.5" y="1.5" width="0.5" height="0.5"/>
        <rect x="7" y="2" width="0.5" height="0.5"/><rect x="7.5" y="2" width="0.5" height="0.5"/>
      </g>
      <g fill="#FFE870">
        <rect x="7" y="0.5" width="0.5" height="0.5"/><rect x="7.5" y="0.5" width="0.5" height="0.5"/><rect x="8" y="0.5" width="0.5" height="0.5"/>
        <rect x="6.5" y="1" width="0.5" height="0.5"/><rect x="8.5" y="1" width="0.5" height="0.5"/>
        <rect x="7" y="1.5" width="0.5" height="0.5"/><rect x="7.5" y="1.5" width="0.5" height="0.5"/><rect x="8" y="1.5" width="0.5" height="0.5"/>
      </g>
      <g fill="#FFC93C"><rect x="7" y="1" width="0.5" height="0.5"/><rect x="8" y="1" width="0.5" height="0.5"/></g>
      <rect x="7.5" y="1" width="0.5" height="0.5" fill="#E67E22"/>
      <rect x="7.5" y="1" width="0.25" height="0.25" fill="#FFF176"/>
      <g fill="#7BA829">
        <rect x="7.5" y="2.5" width="0.5" height="0.5"/><rect x="7.5" y="3" width="0.5" height="0.5"/>
        <rect x="7.5" y="3.5" width="0.5" height="0.5"/><rect x="7.5" y="4" width="0.5" height="0.5"/>
        <rect x="7.5" y="4.5" width="0.5" height="0.5"/>
      </g>
    </g>

    <g fill="#B8D930">
      <rect x="6.5" y="5" width="2" height="0.5"/>
      <rect x="6" y="5.5" width="3" height="0.5"/>
      <rect x="5.5" y="6" width="4" height="0.5"/>
      <rect x="5" y="6.5" width="5" height="0.5"/>
      <rect x="4.5" y="7" width="6" height="0.5"/>
      <rect x="4" y="7.5" width="7" height="0.5"/>
      <rect x="3.5" y="8" width="8" height="2.5"/>
      <rect x="4" y="10.5" width="7" height="0.5"/>
      <rect x="4.5" y="11" width="6" height="0.5"/>
      <rect x="5" y="11.5" width="5" height="0.5"/>
      <rect x="5.5" y="12" width="4" height="1.5"/>
    </g>
    <rect x="5.5" y="13" width="4" height="0.5" fill="#8BA82A" opacity="0.45"/>

    <!-- Hands (animated typing) -->
    <g class="hand-l" fill="#B8D930">
      <rect x="5" y="12" width="0.5" height="1.5"/>
    </g>
    <g class="hand-r" fill="#B8D930">
      <rect x="9.5" y="12" width="0.5" height="1.5"/>
    </g>

    <g fill="#7BA829">
      <rect id="outer-left-leg" x="6" y="13.5" width="0.5" height="1"/>
      <rect id="inner-left-leg" x="6.5" y="13.5" width="0.5" height="1"/>
      <rect id="inner-right-leg" x="8" y="13.5" width="0.5" height="1"/>
      <rect id="outer-right-leg" x="8.5" y="13.5" width="0.5" height="1"/>
    </g>

    <!-- Eyes (looking down at keyboard) -->
    <g class="eyes-focus">
      <g fill="#000000">
        <rect id="left-eye" x="4" y="7.5" width="2" height="2.5"/>
        <rect id="right-eye" x="9" y="7.5" width="2" height="2.5"/>
      </g>
      <g fill="#FFFFFF">
        <rect x="4" y="9.5" width="1" height="0.5"/>
        <rect x="9" y="9.5" width="1" height="0.5"/>
      </g>
    </g>
  </g>

  <!-- Tiny keyboard -->
  <g>
    <rect x="3" y="14" width="9" height="1" fill="#333"/>
    <rect x="3.25" y="14.25" width="0.5" height="0.5" class="key-1" fill="#444"/>
    <rect x="4.25" y="14.25" width="0.5" height="0.5" class="key-2" fill="#444"/>
    <rect x="5.25" y="14.25" width="0.5" height="0.5" class="key-3" fill="#444"/>
    <rect x="6.25" y="14.25" width="0.5" height="0.5" class="key-4" fill="#444"/>
    <rect x="7.25" y="14.25" width="0.5" height="0.5" class="key-1" fill="#444"/>
    <rect x="8.25" y="14.25" width="0.5" height="0.5" class="key-2" fill="#444"/>
    <rect x="9.25" y="14.25" width="0.5" height="0.5" class="key-3" fill="#444"/>
    <rect x="10.25" y="14.25" width="0.5" height="0.5" class="key-4" fill="#444"/>
    <rect x="11.25" y="14.25" width="0.5" height="0.5" class="key-1" fill="#444"/>
  </g>
</svg>
