<svg xmlns="http://www.w3.org/2000/svg" viewBox="-15 -25 45 45">
<defs><style>
  .breathe-anim { transform-origin:7.5px 5px; animation:fbrth 3.2s infinite ease-in-out; }
  .ft-alert { transform-origin:7.5px -1px; animation:ft-alert 3.5s infinite ease-in-out; }
  .eyes-alert { transform-origin:7.5px 4px; animation:eyes-alert 3.5s infinite ease-in-out; }
  .body-alert { transform-origin:7.5px 5px; animation:body-alert 3.5s infinite ease-in-out; }
  .bang { transform-origin:15px -4px; animation:bang 3.5s infinite ease-in-out; opacity:0; }

  @keyframes fbrth {
    0%,100% { transform:scaleX(1) scaleY(1) translateY(0); }
    50%     { transform:scaleX(1.02) scaleY(0.98) translateY(0.4px); }
  }
  @keyframes body-alert {
    0%        { transform:translate(0,0) scale(1,1); }
    4%        { transform:translate(-0.8px,0.8px) scale(1.02,0.96); }
    10%,100%  { transform:translate(0,0) scale(1,1); }
  }
  @keyframes ft-alert {
    0%        { transform:rotate(0deg) scaleY(1); }
    4%        { transform:rotate(-5deg) scaleY(1.18); }
    10%,100%  { transform:rotate(0deg) scaleY(1); }
  }
  @keyframes eyes-alert {
    0%,3%     { transform:scaleY(1); }
    5%        { transform:scaleY(0.1); }
    8%        { transform:scaleY(1.3); }
    14%,100%  { transform:scaleY(1); }
  }
  @keyframes bang {
    0%        { opacity:0; transform:scale(0.3); }
    4%        { opacity:1; transform:scale(1.3); }
    8%,50%    { opacity:1; transform:scale(1); }
    60%,100%  { opacity:0; }
  }
</style></defs>

<g transform="rotate(-12, 7.5, 15)">
  <!-- Tips -->
  <g class="ft-alert">
    <rect x="7"  y="-6" width="1" height="1" fill="#CC3311"/>
    <rect x="6"  y="-5" width="3" height="2" fill="#CC3311"/>
    <rect x="5"  y="-3" width="5" height="2" fill="#DD4422"/>
    <rect x="3"  y="-4" width="2" height="1" fill="#CC3311"/>
    <rect x="3"  y="-3" width="3" height="2" fill="#DD4422"/>
    <rect x="10" y="-4" width="2" height="1" fill="#CC3311"/>
    <rect x="9"  y="-3" width="3" height="2" fill="#DD4422"/>
  </g>

  <rect x="5" y="11" width="1" height="2" fill="#DD3D1E"/>
  <rect x="9" y="11" width="1" height="2" fill="#DD3D1E"/>

  <g class="body-alert">
    <g class="breathe-anim">
      <rect x="3"  y="-1" width="9" height="1"  fill="#DD4422"/>
      <rect x="2"  y="0"  width="11" height="9" fill="#EE4422"/>
      <rect x="3"  y="9"  width="9" height="1"  fill="#EE4422"/>
      <rect x="4"  y="10" width="7" height="1"  fill="#EE4422"/>
      <rect x="3"  y="1"  width="9" height="8"  fill="#FF7744"/>
      <rect x="4"  y="2"  width="7" height="6"  fill="#FFAA66"/>
      <rect x="5"  y="3"  width="5" height="4"  fill="#FFD4A0"/>
      <g class="eyes-alert" fill="#330000">
        <rect x="4" y="3" width="2" height="2"/>
        <rect x="9" y="3" width="2" height="2"/>
        <rect x="4" y="3" width="1" height="1" fill="#ffffff" opacity=".70"/>
        <rect x="9" y="3" width="1" height="1" fill="#ffffff" opacity=".70"/>
      </g>
      <rect x="3"  y="5"  width="2" height="1" fill="#FF9999" opacity=".80"/>
      <rect x="10" y="5"  width="2" height="1" fill="#FF9999" opacity=".80"/>
      <rect x="-1" y="5"  width="3" height="2" fill="#EE4422"/>
      <rect x="13" y="5"  width="2" height="2" fill="#EE4422"/>
    </g>
  </g>

  <!-- Alert ! (in rotated space so it tilts with character) -->
  <g class="bang" fill="#FF4400">
    <rect x="16" y="-10" width="2" height="5"/>
    <rect x="16" y="-4"  width="2" height="2"/>
  </g>
</g>
</svg>
