<svg xmlns="http://www.w3.org/2000/svg" viewBox="-15 -25 45 45" width="500" height="500">
  <defs>
    <style>
      /* Straining body lean */
      .body-push {
        transform-origin: 7.5px 15px; /* Pivot at the base of the feet */
        animation: push-strain 0.6s infinite alternate ease-in-out;
      }

      /* Heavy Data Block shaking */
      .data-block {
        animation: block-shake 0.1s infinite alternate;
      }

      /* Scrambling legs (alternating) */
      .leg {
        transform-box: fill-box;
        transform-origin: top center;
      }
      .leg-1 { animation: run-1 0.3s infinite linear; }
      .leg-2 { animation: run-2 0.3s infinite linear; }

      /* Sweat drop flying off */
      .sweat {
        opacity: 0;
        animation: sweat-fly 2s infinite cubic-bezier(.25,.1,.25,1);
      }

      /* Ground shadow shifting */
      .shadow-push {
        transform-origin: 7.5px 15.5px;
        animation: shadow-strain 0.6s infinite alternate ease-in-out;
      }

      /* Keyframes */
      @keyframes push-strain {
        0% { transform: rotate(12deg) scale(1, 0.95); }
        100% { transform: rotate(18deg) scale(1.05, 0.9); } /* Deeper lean and squash */
      }

      @keyframes shadow-strain {
        0% { transform: translateX(1px) scaleX(1); opacity: 0.5; }
        100% { transform: translateX(3px) scaleX(1.1); opacity: 0.6; }
      }

      @keyframes block-shake {
        0% { transform: translate(0, 0); }
        100% { transform: translate(0.5px, -0.5px); }
      }

      /* Scrambling legs swinging backwards to push */
      @keyframes run-1 {
        0%, 100% { transform: rotate(0deg) scaleY(1); }
        50% { transform: rotate(-25deg) scaleY(0.7); }
      }
      @keyframes run-2 {
        0%, 100% { transform: rotate(-25deg) scaleY(0.7); }
        50% { transform: rotate(0deg) scaleY(1); }
      }

      /* Sweat drop flies back and fades */
      @keyframes sweat-fly {
        0% { transform: translate(0, 0) scale(0); opacity: 0; }
        10% { transform: translate(0, 0) scale(1); opacity: 1; }
        40% { transform: translate(-8px, -4px) scale(0.8); opacity: 0; }
        100% { opacity: 0; }
      }
    </style>
  </defs>

  <!-- Ground Shadows -->
  <rect id="ground-shadow" class="shadow-push" x="3" y="15" width="9" height="1" fill="#000000" opacity="0.5"/>
  <rect id="block-shadow" x="14" y="15" width="10" height="1" fill="#000000" opacity="0.4"/>

  <!-- Heavy Data Block -->
  <g class="data-block" transform="translate(14, 5)">
    <!-- Main Block -->
    <rect x="0" y="0" width="10" height="10" fill="#90A4AE"/>
    <rect x="1" y="1" width="8" height="8" fill="#CFD8DC"/>
    
    <!-- Data "Lights" on the block -->
    <rect x="2" y="2" width="2" height="2" fill="#0082FC"/>
    <rect x="6" y="2" width="2" height="2" fill="#FFC107"/>
    <rect x="2" y="6" width="6" height="2" fill="#B0BEC5"/>
  </g>

  <!-- Leaning Body -->
  <g class="body-push">
    
    <!-- Sweat Drop (Positioned near the side of the head) -->
    <g transform="translate(1, 4)">
      <g class="sweat" fill="#40C4FF">
        <rect x="0" y="1" width="1.5" height="1.5"/>
        <rect x="0.25" y="0" width="1" height="1"/>
      </g>
    </g>

    <g fill="#3D8A83">
      <rect x="4" y="2" width="1" height="2"/>
      <rect x="3" y="3" width="1" height="1"/>
      <rect x="10" y="2" width="1" height="2"/>
      <rect x="11" y="3" width="1" height="1"/>
    </g>
    <rect x="3" y="4" width="9" height="2" fill="#4DA8A0"/>
    <g id="body-color-group" fill="#4DA8A0">
      <rect id="outer-left-leg" class="leg leg-1" x="3" y="13" width="1" height="2"/>
      <rect id="inner-left-leg" class="leg leg-2" x="5" y="13" width="1" height="2"/>
      <rect id="inner-right-leg" class="leg leg-1" x="9" y="13" width="1" height="2"/>
      <rect id="outer-right-leg" class="leg leg-2" x="11" y="13" width="1" height="2"/>
      <rect id="torso" x="2" y="6" width="11" height="7"/>
      <rect id="left-arm" x="0" y="9" width="2" height="2" transform="translate(11, 0) rotate(-15 1 10)"/>
      <rect id="right-arm" x="13" y="9" width="2" height="2" transform="translate(0, -1) rotate(-15 14 10)"/>
    </g>
    
    <!-- Cyclops Eye (strained) -->
    <rect x="5" y="7" width="5" height="2.5" fill="#FFFFFF" rx="0.5"/>
    <rect x="6" y="7.3" width="3" height="1.8" fill="#78C8A0" rx="0.3"/>
    <rect x="7" y="7.8" width="1" height="1" fill="#1A1A1A"/>
    
  </g>
</svg>
