<svg xmlns="http://www.w3.org/2000/svg" viewBox="0 0 160 120" shape-rendering="crispEdges"><style>.b{animation:b 1.1s steps(2,end) infinite}.t{animation:t .5s steps(2,end) infinite;transform-origin:126px 74px}.e{animation:e 4s steps(1,end) infinite}@keyframes b{50%{transform:translateY(-3px)}}@keyframes t{50%{transform:rotate(18deg)}}@keyframes e{95%{transform:scaleY(.12)}}</style><rect x="34" y="96" width="92" height="6" fill="#000" opacity=".22"/><g class="b"><g class="t"><rect x="122" y="66" width="18" height="10" fill="#6f3d18"/><rect x="132" y="62" width="14" height="8" fill="#f4b35e"/></g><rect x="40" y="70" width="16" height="16" fill="#6f3d18"/><rect x="104" y="70" width="16" height="16" fill="#6f3d18"/><rect x="38" y="62" width="84" height="30" fill="#6f3d18"/><rect x="44" y="58" width="72" height="34" fill="#f4b35e"/><rect x="60" y="70" width="40" height="20" fill="#ffe37a"/><rect x="48" y="34" width="14" height="26" fill="#6f3d18"/><rect x="98" y="34" width="14" height="26" fill="#6f3d18"/><rect x="52" y="48" width="56" height="38" fill="#6f3d18"/><rect x="58" y="52" width="44" height="32" fill="#f4b35e"/><rect x="68" y="68" width="24" height="18" fill="#ffe37a"/><rect class="e" x="60" y="60" width="6" height="6" fill="#24150b"/><rect class="e" x="94" y="60" width="6" height="6" fill="#24150b"/><rect x="76" y="74" width="8" height="6" fill="#24150b"/></g></svg>