<svg xmlns="http://www.w3.org/2000/svg" viewBox="-15 -25 45 45">
<defs><style>
  /* More rotation — only top of character peeking over edge */
  .breathe-anim { transform-origin:7.5px 5px; animation:fbrth 3.2s infinite ease-in-out; }
  .eyes-blink { transform-origin:7.5px 4px; animation:fblink 4.5s infinite ease-in-out; }
  .arm-peek {
    transform-box: fill-box;
    transform-origin: 100% 0%;
    animation: arm-wobble 20s infinite ease-in-out;
  }

  @keyframes fbrth {
    0%,100% { transform:scaleX(1) scaleY(1) translateY(0); }
    50%     { transform:scaleX(1.02) scaleY(0.98) translateY(0.4px); }
  }
  @keyframes fblink {
    0%,10%,100% { transform:scaleY(1); }
    5%          { transform:scaleY(0.1); }
  }
  @keyframes arm-wobble {
    0%,90%,96%,100% { transform:rotate(0deg); }
    91%             { transform:rotate(18deg); }
    93%             { transform:rotate(-4deg); }
    94.5%           { transform:rotate(14deg); }
  }
</style></defs>

<!-- More tilt for deeper peek (rotate -20deg) -->
<g transform="rotate(-20, 7.5, 15)">
  <!-- Tips (barely visible above edge) -->
  <rect x="7"  y="-6" width="1" height="1" fill="#CC3311"/>
  <rect x="6"  y="-5" width="3" height="2" fill="#CC3311"/>
  <rect x="5"  y="-3" width="5" height="2" fill="#DD4422"/>
  <rect x="3"  y="-4" width="2" height="1" fill="#CC3311"/>
  <rect x="3"  y="-3" width="3" height="2" fill="#DD4422"/>
  <rect x="10" y="-4" width="2" height="1" fill="#CC3311"/>
  <rect x="9"  y="-3" width="3" height="2" fill="#DD4422"/>

  <rect x="5" y="11" width="1" height="2" fill="#DD3D1E"/>
  <rect x="9" y="11" width="1" height="2" fill="#DD3D1E"/>

  <g id="body-js">
    <g class="breathe-anim">
      <rect x="3"  y="-1" width="9" height="1"  fill="#DD4422"/>
      <rect x="2"  y="0"  width="11" height="9" fill="#EE4422"/>
      <rect x="3"  y="9"  width="9" height="1"  fill="#EE4422"/>
      <rect x="4"  y="10" width="7" height="1"  fill="#EE4422"/>
      <rect x="3"  y="1"  width="9" height="8"  fill="#FF7744"/>
      <rect x="4"  y="2"  width="7" height="6"  fill="#FFAA66"/>
      <rect x="5"  y="3"  width="5" height="4"  fill="#FFD4A0"/>
      <g id="eyes-js">
        <g class="eyes-blink" fill="#330000">
          <rect x="4" y="3" width="2" height="2"/>
          <rect x="9" y="3" width="2" height="2"/>
          <rect x="4" y="3" width="1" height="1" fill="#ffffff" opacity=".70"/>
          <rect x="9" y="3" width="1" height="1" fill="#ffffff" opacity=".70"/>
        </g>
      </g>
      <rect x="3"  y="5"  width="2" height="1" fill="#FF9999" opacity=".80"/>
      <rect x="10" y="5"  width="2" height="1" fill="#FF9999" opacity=".80"/>
      <!-- Extended arm visible over edge -->
      <g class="arm-peek" fill="#EE4422">
        <rect x="-2" y="5" width="4" height="2"/>
      </g>
      <rect x="13" y="5" width="2" height="2" fill="#EE4422"/>
    </g>
  </g>
</g>
</svg>
